<svg t="1670209619880" class="icon" viewBox="0 0 1024 1024" version="1.1" xmlns="http://www.w3.org/2000/svg"
  p-id="16525" fill="currentColor">
  <path
    d="M894.4 416H880v-48c0-53-43-96-96-96H464l-100.9-88.2c-17.5-15.3-40-23.8-63.2-23.8H144c-53 0-96 43-96 96v512c0 53 43 96 96 96h619.6c51.2 0 97.5-30.5 117.7-77.6l101.4-236.6c27.1-63.3-19.4-133.8-88.3-133.8z m-78.4 0H292.4c-51.2 0-97.5 30.5-117.7 77.6L112 640V256c0-17.6 14.4-32 32-32h155.9c7.8 0 15.2 2.8 21.1 7.9l100.9 88.2L440 336h344c17.6 0 32 14.4 32 32v48z"
    fill="#1875F0" p-id="16526"></path>
</svg>